<svg xmlns="http://www.w3.org/2000/svg" xmlns:xlink="http://www.w3.org/1999/xlink" width="500" zoomAndPan="magnify" viewBox="0 0 375 374.999991" height="500" preserveAspectRatio="xMidYMid meet" version="1.0"><defs><g/></defs><g fill="#000000" fill-opacity="1"><g transform="translate(83.243267, 181.243493)"><g><path d="M 2.8125 -16 L 2.8125 -19.40625 C 2.832031 -21.800781 3.390625 -23.710938 4.484375 -25.140625 C 5.585938 -26.578125 7.117188 -27.296875 9.078125 -27.296875 C 9.910156 -27.296875 10.707031 -27.175781 11.46875 -26.9375 C 12.226562 -26.695312 12.773438 -26.453125 13.109375 -26.203125 L 13.640625 -25.875 L 11.703125 -21.96875 C 11.203125 -22.257812 10.648438 -22.40625 10.046875 -22.40625 C 9.359375 -22.40625 8.898438 -22.171875 8.671875 -21.703125 C 8.441406 -21.234375 8.328125 -20.414062 8.328125 -19.25 L 8.328125 -16 L 12.015625 -16 L 12.015625 -11.796875 L 8.328125 -11.796875 L 8.328125 0 L 2.8125 0 L 2.8125 -11.796875 L 0.5 -11.796875 L 0.5 -16 Z M 2.8125 -16 "/></g></g></g><g fill="#000000" fill-opacity="1"><g transform="translate(92.011699, 181.243493)"><g><path d="M 7.078125 -16 L 7.078125 -8.390625 C 7.078125 -6.804688 7.316406 -5.679688 7.796875 -5.015625 C 8.273438 -4.359375 9.085938 -4.03125 10.234375 -4.03125 C 11.378906 -4.03125 12.191406 -4.359375 12.671875 -5.015625 C 13.148438 -5.679688 13.390625 -6.804688 13.390625 -8.390625 L 13.390625 -16 L 18.90625 -16 L 18.90625 -7.046875 C 18.90625 -4.390625 18.210938 -2.472656 16.828125 -1.296875 C 15.453125 -0.117188 13.253906 0.46875 10.234375 0.46875 C 7.210938 0.46875 5.007812 -0.117188 3.625 -1.296875 C 2.25 -2.472656 1.5625 -4.390625 1.5625 -7.046875 L 1.5625 -16 Z M 7.078125 -16 "/></g></g></g><g fill="#000000" fill-opacity="1"><g transform="translate(109.54929, 181.243493)"><g><path d="M 1.875 0 L 1.875 -16 L 7.390625 -16 L 7.390625 -13.703125 L 7.453125 -13.703125 C 7.492188 -13.785156 7.5625 -13.890625 7.65625 -14.015625 C 7.75 -14.140625 7.953125 -14.359375 8.265625 -14.671875 C 8.578125 -14.984375 8.910156 -15.257812 9.265625 -15.5 C 9.617188 -15.75 10.078125 -15.972656 10.640625 -16.171875 C 11.203125 -16.367188 11.773438 -16.46875 12.359375 -16.46875 C 12.960938 -16.46875 13.554688 -16.382812 14.140625 -16.21875 C 14.722656 -16.050781 15.148438 -15.882812 15.421875 -15.71875 L 15.84375 -15.484375 L 13.546875 -10.796875 C 12.859375 -11.378906 11.898438 -11.671875 10.671875 -11.671875 C 10.003906 -11.671875 9.429688 -11.523438 8.953125 -11.234375 C 8.472656 -10.941406 8.132812 -10.585938 7.9375 -10.171875 C 7.738281 -9.753906 7.597656 -9.398438 7.515625 -9.109375 C 7.429688 -8.816406 7.390625 -8.585938 7.390625 -8.421875 L 7.390625 0 Z M 1.875 0 "/></g></g></g><g fill="#000000" fill-opacity="1"><g transform="translate(122.156172, 181.243493)"><g><path d="M 1.875 0 L 1.875 -16 L 7.390625 -16 L 7.390625 -14.328125 L 7.453125 -14.328125 C 8.890625 -15.753906 10.421875 -16.46875 12.046875 -16.46875 C 12.835938 -16.46875 13.625 -16.363281 14.40625 -16.15625 C 15.1875 -15.945312 15.929688 -15.625 16.640625 -15.1875 C 17.359375 -14.757812 17.941406 -14.144531 18.390625 -13.34375 C 18.835938 -12.539062 19.0625 -11.609375 19.0625 -10.546875 L 19.0625 0 L 13.546875 0 L 13.546875 -9.046875 C 13.546875 -9.878906 13.28125 -10.609375 12.75 -11.234375 C 12.21875 -11.859375 11.523438 -12.171875 10.671875 -12.171875 C 9.835938 -12.171875 9.082031 -11.847656 8.40625 -11.203125 C 7.726562 -10.554688 7.390625 -9.835938 7.390625 -9.046875 L 7.390625 0 Z M 1.875 0 "/></g></g></g><g fill="#000000" fill-opacity="1"><g transform="translate(139.849793, 181.243493)"><g><path d="M 2.40625 -24.9375 C 3.050781 -25.582031 3.816406 -25.90625 4.703125 -25.90625 C 5.597656 -25.90625 6.367188 -25.582031 7.015625 -24.9375 C 7.660156 -24.289062 7.984375 -23.519531 7.984375 -22.625 C 7.984375 -21.726562 7.660156 -20.957031 7.015625 -20.3125 C 6.367188 -19.664062 5.597656 -19.34375 4.703125 -19.34375 C 3.816406 -19.34375 3.050781 -19.664062 2.40625 -20.3125 C 1.757812 -20.957031 1.4375 -21.726562 1.4375 -22.625 C 1.4375 -23.519531 1.757812 -24.289062 2.40625 -24.9375 Z M 1.875 -16 L 1.875 0 L 7.390625 0 L 7.390625 -16 Z M 1.875 -16 "/></g></g></g><g fill="#000000" fill-opacity="1"><g transform="translate(146.34012, 181.243493)"><g><path d="M 2.8125 -16 L 2.8125 -21.96875 L 8.328125 -21.96875 L 8.328125 -16 L 11.703125 -16 L 11.703125 -11.796875 L 8.328125 -11.796875 L 8.328125 -6.703125 C 8.328125 -5.234375 8.742188 -4.5 9.578125 -4.5 C 9.785156 -4.5 10.003906 -4.539062 10.234375 -4.625 C 10.460938 -4.707031 10.640625 -4.789062 10.765625 -4.875 L 10.953125 -5 L 12.328125 -0.53125 C 11.140625 0.132812 9.785156 0.46875 8.265625 0.46875 C 7.222656 0.46875 6.328125 0.285156 5.578125 -0.078125 C 4.835938 -0.441406 4.273438 -0.929688 3.890625 -1.546875 C 3.503906 -2.160156 3.226562 -2.804688 3.0625 -3.484375 C 2.894531 -4.160156 2.8125 -4.878906 2.8125 -5.640625 L 2.8125 -11.796875 L 0.5 -11.796875 L 0.5 -16 Z M 2.8125 -16 "/></g></g></g><g fill="#000000" fill-opacity="1"><g transform="translate(155.732692, 181.243493)"><g><path d="M 7.078125 -16 L 7.078125 -8.390625 C 7.078125 -6.804688 7.316406 -5.679688 7.796875 -5.015625 C 8.273438 -4.359375 9.085938 -4.03125 10.234375 -4.03125 C 11.378906 -4.03125 12.191406 -4.359375 12.671875 -5.015625 C 13.148438 -5.679688 13.390625 -6.804688 13.390625 -8.390625 L 13.390625 -16 L 18.90625 -16 L 18.90625 -7.046875 C 18.90625 -4.390625 18.210938 -2.472656 16.828125 -1.296875 C 15.453125 -0.117188 13.253906 0.46875 10.234375 0.46875 C 7.210938 0.46875 5.007812 -0.117188 3.625 -1.296875 C 2.25 -2.472656 1.5625 -4.390625 1.5625 -7.046875 L 1.5625 -16 Z M 7.078125 -16 "/></g></g></g><g fill="#000000" fill-opacity="1"><g transform="translate(173.270281, 181.243493)"><g><path d="M 1.875 0 L 1.875 -16 L 7.390625 -16 L 7.390625 -13.703125 L 7.453125 -13.703125 C 7.492188 -13.785156 7.5625 -13.890625 7.65625 -14.015625 C 7.75 -14.140625 7.953125 -14.359375 8.265625 -14.671875 C 8.578125 -14.984375 8.910156 -15.257812 9.265625 -15.5 C 9.617188 -15.75 10.078125 -15.972656 10.640625 -16.171875 C 11.203125 -16.367188 11.773438 -16.46875 12.359375 -16.46875 C 12.960938 -16.46875 13.554688 -16.382812 14.140625 -16.21875 C 14.722656 -16.050781 15.148438 -15.882812 15.421875 -15.71875 L 15.84375 -15.484375 L 13.546875 -10.796875 C 12.859375 -11.378906 11.898438 -11.671875 10.671875 -11.671875 C 10.003906 -11.671875 9.429688 -11.523438 8.953125 -11.234375 C 8.472656 -10.941406 8.132812 -10.585938 7.9375 -10.171875 C 7.738281 -9.753906 7.597656 -9.398438 7.515625 -9.109375 C 7.429688 -8.816406 7.390625 -8.585938 7.390625 -8.421875 L 7.390625 0 Z M 1.875 0 "/></g></g></g><g fill="#000000" fill-opacity="1"><g transform="translate(185.877161, 181.243493)"><g><path d="M 18.0625 -7.234375 L 6.453125 -7.234375 C 6.453125 -6.109375 6.816406 -5.273438 7.546875 -4.734375 C 8.273438 -4.203125 9.066406 -3.9375 9.921875 -3.9375 C 10.816406 -3.9375 11.523438 -4.054688 12.046875 -4.296875 C 12.566406 -4.535156 13.160156 -5.003906 13.828125 -5.703125 L 17.8125 -3.71875 C 16.15625 -0.925781 13.390625 0.46875 9.515625 0.46875 C 7.097656 0.46875 5.023438 -0.359375 3.296875 -2.015625 C 1.578125 -3.671875 0.71875 -5.660156 0.71875 -7.984375 C 0.71875 -10.316406 1.578125 -12.3125 3.296875 -13.96875 C 5.023438 -15.632812 7.097656 -16.46875 9.515625 -16.46875 C 12.054688 -16.46875 14.117188 -15.734375 15.703125 -14.265625 C 17.296875 -12.804688 18.09375 -10.710938 18.09375 -7.984375 C 18.09375 -7.609375 18.082031 -7.359375 18.0625 -7.234375 Z M 6.609375 -10.296875 L 12.703125 -10.296875 C 12.578125 -11.128906 12.25 -11.769531 11.71875 -12.21875 C 11.1875 -12.664062 10.503906 -12.890625 9.671875 -12.890625 C 8.753906 -12.890625 8.023438 -12.648438 7.484375 -12.171875 C 6.941406 -11.691406 6.648438 -11.066406 6.609375 -10.296875 Z M 6.609375 -10.296875 "/></g></g></g><g fill="#000000" fill-opacity="1"><g transform="translate(201.760769, 181.243493)"><g><path d="M 5.921875 -16 L 9.828125 -7.296875 L 13.734375 -16 L 20.28125 -16 L 11.703125 0 L 7.953125 0 L -0.625 -16 Z M 5.921875 -16 "/></g></g></g><g fill="#000000" fill-opacity="1"><g transform="translate(218.486972, 181.243493)"><g><path d="M 18.0625 -7.234375 L 6.453125 -7.234375 C 6.453125 -6.109375 6.816406 -5.273438 7.546875 -4.734375 C 8.273438 -4.203125 9.066406 -3.9375 9.921875 -3.9375 C 10.816406 -3.9375 11.523438 -4.054688 12.046875 -4.296875 C 12.566406 -4.535156 13.160156 -5.003906 13.828125 -5.703125 L 17.8125 -3.71875 C 16.15625 -0.925781 13.390625 0.46875 9.515625 0.46875 C 7.097656 0.46875 5.023438 -0.359375 3.296875 -2.015625 C 1.578125 -3.671875 0.71875 -5.660156 0.71875 -7.984375 C 0.71875 -10.316406 1.578125 -12.3125 3.296875 -13.96875 C 5.023438 -15.632812 7.097656 -16.46875 9.515625 -16.46875 C 12.054688 -16.46875 14.117188 -15.734375 15.703125 -14.265625 C 17.296875 -12.804688 18.09375 -10.710938 18.09375 -7.984375 C 18.09375 -7.609375 18.082031 -7.359375 18.0625 -7.234375 Z M 6.609375 -10.296875 L 12.703125 -10.296875 C 12.578125 -11.128906 12.25 -11.769531 11.71875 -12.21875 C 11.1875 -12.664062 10.503906 -12.890625 9.671875 -12.890625 C 8.753906 -12.890625 8.023438 -12.648438 7.484375 -12.171875 C 6.941406 -11.691406 6.648438 -11.066406 6.609375 -10.296875 Z M 6.609375 -10.296875 "/></g></g></g><g fill="#000000" fill-opacity="1"><g transform="translate(234.37058, 181.243493)"><g><path d="M 1.875 0 L 1.875 -16 L 7.390625 -16 L 7.390625 -13.703125 L 7.453125 -13.703125 C 7.492188 -13.785156 7.5625 -13.890625 7.65625 -14.015625 C 7.75 -14.140625 7.953125 -14.359375 8.265625 -14.671875 C 8.578125 -14.984375 8.910156 -15.257812 9.265625 -15.5 C 9.617188 -15.75 10.078125 -15.972656 10.640625 -16.171875 C 11.203125 -16.367188 11.773438 -16.46875 12.359375 -16.46875 C 12.960938 -16.46875 13.554688 -16.382812 14.140625 -16.21875 C 14.722656 -16.050781 15.148438 -15.882812 15.421875 -15.71875 L 15.84375 -15.484375 L 13.546875 -10.796875 C 12.859375 -11.378906 11.898438 -11.671875 10.671875 -11.671875 C 10.003906 -11.671875 9.429688 -11.523438 8.953125 -11.234375 C 8.472656 -10.941406 8.132812 -10.585938 7.9375 -10.171875 C 7.738281 -9.753906 7.597656 -9.398438 7.515625 -9.109375 C 7.429688 -8.816406 7.390625 -8.585938 7.390625 -8.421875 L 7.390625 0 Z M 1.875 0 "/></g></g></g><g fill="#000000" fill-opacity="1"><g transform="translate(246.97746, 181.243493)"><g><path d="M 8.828125 -16.46875 C 9.742188 -16.46875 10.648438 -16.363281 11.546875 -16.15625 C 12.441406 -15.945312 13.109375 -15.742188 13.546875 -15.546875 L 14.203125 -15.234375 L 12.390625 -11.609375 C 11.140625 -12.273438 9.953125 -12.609375 8.828125 -12.609375 C 8.203125 -12.609375 7.757812 -12.539062 7.5 -12.40625 C 7.238281 -12.269531 7.109375 -12.015625 7.109375 -11.640625 C 7.109375 -11.554688 7.117188 -11.472656 7.140625 -11.390625 C 7.160156 -11.304688 7.203125 -11.226562 7.265625 -11.15625 C 7.328125 -11.082031 7.382812 -11.019531 7.4375 -10.96875 C 7.488281 -10.914062 7.578125 -10.859375 7.703125 -10.796875 C 7.828125 -10.734375 7.925781 -10.6875 8 -10.65625 C 8.070312 -10.625 8.191406 -10.578125 8.359375 -10.515625 C 8.523438 -10.453125 8.648438 -10.40625 8.734375 -10.375 C 8.816406 -10.34375 8.957031 -10.296875 9.15625 -10.234375 C 9.351562 -10.171875 9.503906 -10.128906 9.609375 -10.109375 C 10.253906 -9.921875 10.816406 -9.710938 11.296875 -9.484375 C 11.773438 -9.253906 12.28125 -8.941406 12.8125 -8.546875 C 13.34375 -8.148438 13.753906 -7.648438 14.046875 -7.046875 C 14.335938 -6.441406 14.484375 -5.757812 14.484375 -5 C 14.484375 -1.351562 11.953125 0.46875 6.890625 0.46875 C 5.753906 0.46875 4.671875 0.289062 3.640625 -0.0625 C 2.609375 -0.414062 1.863281 -0.769531 1.40625 -1.125 L 0.71875 -1.6875 L 2.96875 -5.453125 C 3.132812 -5.304688 3.351562 -5.132812 3.625 -4.9375 C 3.894531 -4.75 4.378906 -4.484375 5.078125 -4.140625 C 5.785156 -3.796875 6.398438 -3.625 6.921875 -3.625 C 8.066406 -3.625 8.640625 -4.007812 8.640625 -4.78125 C 8.640625 -5.125 8.492188 -5.394531 8.203125 -5.59375 C 7.910156 -5.789062 7.414062 -6.015625 6.71875 -6.265625 C 6.019531 -6.515625 5.476562 -6.742188 5.09375 -6.953125 C 4.09375 -7.472656 3.300781 -8.0625 2.71875 -8.71875 C 2.132812 -9.375 1.84375 -10.242188 1.84375 -11.328125 C 1.84375 -12.953125 2.46875 -14.210938 3.71875 -15.109375 C 4.976562 -16.015625 6.679688 -16.46875 8.828125 -16.46875 Z M 8.828125 -16.46875 "/></g></g></g><g fill="#000000" fill-opacity="1"><g transform="translate(259.397102, 181.243493)"><g><path d="M 18.0625 -7.234375 L 6.453125 -7.234375 C 6.453125 -6.109375 6.816406 -5.273438 7.546875 -4.734375 C 8.273438 -4.203125 9.066406 -3.9375 9.921875 -3.9375 C 10.816406 -3.9375 11.523438 -4.054688 12.046875 -4.296875 C 12.566406 -4.535156 13.160156 -5.003906 13.828125 -5.703125 L 17.8125 -3.71875 C 16.15625 -0.925781 13.390625 0.46875 9.515625 0.46875 C 7.097656 0.46875 5.023438 -0.359375 3.296875 -2.015625 C 1.578125 -3.671875 0.71875 -5.660156 0.71875 -7.984375 C 0.71875 -10.316406 1.578125 -12.3125 3.296875 -13.96875 C 5.023438 -15.632812 7.097656 -16.46875 9.515625 -16.46875 C 12.054688 -16.46875 14.117188 -15.734375 15.703125 -14.265625 C 17.296875 -12.804688 18.09375 -10.710938 18.09375 -7.984375 C 18.09375 -7.609375 18.082031 -7.359375 18.0625 -7.234375 Z M 6.609375 -10.296875 L 12.703125 -10.296875 C 12.578125 -11.128906 12.25 -11.769531 11.71875 -12.21875 C 11.1875 -12.664062 10.503906 -12.890625 9.671875 -12.890625 C 8.753906 -12.890625 8.023438 -12.648438 7.484375 -12.171875 C 6.941406 -11.691406 6.648438 -11.066406 6.609375 -10.296875 Z M 6.609375 -10.296875 "/></g></g></g><g fill="#000000" fill-opacity="1"><g transform="translate(275.280723, 181.243493)"><g/></g></g><g fill="#000000" fill-opacity="1"><g transform="translate(280.866034, 181.243493)"><g><path d="M 5.421875 -6.671875 C 6.421875 -6.671875 7.269531 -6.320312 7.96875 -5.625 C 8.664062 -4.9375 9.015625 -4.09375 9.015625 -3.09375 C 9.015625 -2.113281 8.664062 -1.273438 7.96875 -0.578125 C 7.269531 0.117188 6.421875 0.46875 5.421875 0.46875 C 4.453125 0.46875 3.617188 0.117188 2.921875 -0.578125 C 2.222656 -1.273438 1.875 -2.113281 1.875 -3.09375 C 1.875 -4.09375 2.222656 -4.9375 2.921875 -5.625 C 3.617188 -6.320312 4.453125 -6.671875 5.421875 -6.671875 Z M 5.421875 -6.671875 "/></g></g></g><g fill="#000000" fill-opacity="1"><g transform="translate(139.280167, 212.619406)"><g><path d="M 3.046875 -6.75 C 2.816406 -6.75 2.644531 -6.675781 2.53125 -6.53125 C 2.425781 -6.394531 2.375 -6.226562 2.375 -6.03125 L 2.375 -5.3125 L 3.40625 -5.3125 C 3.539062 -5.3125 3.648438 -5.265625 3.734375 -5.171875 C 3.828125 -5.085938 3.875 -4.984375 3.875 -4.859375 C 3.875 -4.722656 3.828125 -4.613281 3.734375 -4.53125 C 3.648438 -4.445312 3.539062 -4.40625 3.40625 -4.40625 L 2.375 -4.40625 L 2.375 -0.5 C 2.375 -0.351562 2.328125 -0.234375 2.234375 -0.140625 C 2.148438 -0.046875 2.035156 0 1.890625 0 C 1.753906 0 1.640625 -0.046875 1.546875 -0.140625 C 1.453125 -0.234375 1.40625 -0.351562 1.40625 -0.5 L 1.40625 -4.40625 L 0.765625 -4.40625 C 0.628906 -4.40625 0.515625 -4.445312 0.421875 -4.53125 C 0.335938 -4.613281 0.296875 -4.722656 0.296875 -4.859375 C 0.296875 -4.984375 0.335938 -5.085938 0.421875 -5.171875 C 0.515625 -5.265625 0.628906 -5.3125 0.765625 -5.3125 L 1.40625 -5.3125 L 1.40625 -6.03125 C 1.40625 -6.507812 1.554688 -6.890625 1.859375 -7.171875 C 2.171875 -7.460938 2.609375 -7.609375 3.171875 -7.609375 C 3.410156 -7.609375 3.617188 -7.566406 3.796875 -7.484375 C 3.972656 -7.398438 4.0625 -7.269531 4.0625 -7.09375 C 4.0625 -6.96875 4.019531 -6.859375 3.9375 -6.765625 C 3.863281 -6.679688 3.769531 -6.640625 3.65625 -6.640625 C 3.632812 -6.640625 3.5625 -6.65625 3.4375 -6.6875 C 3.28125 -6.726562 3.148438 -6.75 3.046875 -6.75 Z M 3.046875 -6.75 "/></g></g></g><g fill="#000000" fill-opacity="1"><g transform="translate(150.017695, 212.619406)"><g><path d="M 4.75 -5.40625 C 4.894531 -5.40625 5.015625 -5.351562 5.109375 -5.25 C 5.203125 -5.15625 5.25 -5.039062 5.25 -4.90625 L 5.25 -2.171875 C 5.25 -1.453125 5.050781 -0.894531 4.65625 -0.5 C 4.257812 -0.101562 3.703125 0.09375 2.984375 0.09375 C 2.265625 0.09375 1.707031 -0.101562 1.3125 -0.5 C 0.925781 -0.894531 0.734375 -1.453125 0.734375 -2.171875 L 0.734375 -4.90625 C 0.734375 -5.039062 0.78125 -5.15625 0.875 -5.25 C 0.96875 -5.351562 1.082031 -5.40625 1.21875 -5.40625 C 1.363281 -5.40625 1.484375 -5.351562 1.578125 -5.25 C 1.671875 -5.15625 1.71875 -5.039062 1.71875 -4.90625 L 1.71875 -2.171875 C 1.71875 -1.265625 2.140625 -0.8125 2.984375 -0.8125 C 3.398438 -0.8125 3.71875 -0.925781 3.9375 -1.15625 C 4.15625 -1.382812 4.265625 -1.722656 4.265625 -2.171875 L 4.265625 -4.90625 C 4.265625 -5.039062 4.3125 -5.15625 4.40625 -5.25 C 4.5 -5.351562 4.613281 -5.40625 4.75 -5.40625 Z M 4.75 -5.40625 "/></g></g></g><g fill="#000000" fill-opacity="1"><g transform="translate(162.712356, 212.619406)"><g><path d="M 3.421875 -5.53125 C 3.597656 -5.53125 3.75 -5.484375 3.875 -5.390625 C 4.007812 -5.296875 4.078125 -5.179688 4.078125 -5.046875 C 4.078125 -4.878906 4.035156 -4.75 3.953125 -4.65625 C 3.867188 -4.570312 3.765625 -4.53125 3.640625 -4.53125 C 3.578125 -4.53125 3.484375 -4.550781 3.359375 -4.59375 C 3.210938 -4.644531 3.097656 -4.671875 3.015625 -4.671875 C 2.804688 -4.671875 2.597656 -4.597656 2.390625 -4.453125 C 2.191406 -4.304688 2.03125 -4.101562 1.90625 -3.84375 C 1.78125 -3.582031 1.71875 -3.296875 1.71875 -2.984375 L 1.71875 -0.5 C 1.71875 -0.351562 1.671875 -0.234375 1.578125 -0.140625 C 1.484375 -0.046875 1.363281 0 1.21875 0 C 1.070312 0 0.953125 -0.046875 0.859375 -0.140625 C 0.773438 -0.234375 0.734375 -0.351562 0.734375 -0.5 L 0.734375 -4.90625 C 0.734375 -5.039062 0.78125 -5.15625 0.875 -5.25 C 0.96875 -5.351562 1.082031 -5.40625 1.21875 -5.40625 C 1.363281 -5.40625 1.484375 -5.351562 1.578125 -5.25 C 1.671875 -5.15625 1.71875 -5.039062 1.71875 -4.90625 L 1.71875 -4.390625 C 1.863281 -4.722656 2.085938 -4.992188 2.390625 -5.203125 C 2.691406 -5.410156 3.035156 -5.519531 3.421875 -5.53125 Z M 3.421875 -5.53125 "/></g></g></g><g fill="#000000" fill-opacity="1"><g transform="translate(173.686799, 212.619406)"><g><path d="M 3.484375 -5.53125 C 4.722656 -5.53125 5.34375 -4.785156 5.34375 -3.296875 L 5.34375 -0.5 C 5.34375 -0.351562 5.296875 -0.234375 5.203125 -0.140625 C 5.109375 -0.046875 4.988281 0 4.84375 0 C 4.707031 0 4.59375 -0.046875 4.5 -0.140625 C 4.40625 -0.234375 4.359375 -0.351562 4.359375 -0.5 L 4.359375 -3.296875 C 4.359375 -3.691406 4.265625 -4.007812 4.078125 -4.25 C 3.898438 -4.5 3.597656 -4.625 3.171875 -4.625 C 2.898438 -4.625 2.648438 -4.5625 2.421875 -4.4375 C 2.203125 -4.320312 2.03125 -4.160156 1.90625 -3.953125 C 1.78125 -3.753906 1.71875 -3.535156 1.71875 -3.296875 L 1.71875 -0.5 C 1.71875 -0.351562 1.671875 -0.234375 1.578125 -0.140625 C 1.484375 -0.046875 1.363281 0 1.21875 0 C 1.070312 0 0.953125 -0.046875 0.859375 -0.140625 C 0.773438 -0.234375 0.734375 -0.351562 0.734375 -0.5 L 0.734375 -4.90625 C 0.734375 -5.039062 0.78125 -5.15625 0.875 -5.25 C 0.96875 -5.351562 1.082031 -5.40625 1.21875 -5.40625 C 1.363281 -5.40625 1.484375 -5.351562 1.578125 -5.25 C 1.671875 -5.15625 1.71875 -5.039062 1.71875 -4.90625 L 1.71875 -4.546875 C 1.894531 -4.816406 2.140625 -5.046875 2.453125 -5.234375 C 2.773438 -5.429688 3.117188 -5.53125 3.484375 -5.53125 Z M 3.484375 -5.53125 "/></g></g></g><g fill="#000000" fill-opacity="1"><g transform="translate(186.474169, 212.619406)"><g><path d="M 1.65625 -0.5 C 1.65625 -0.351562 1.609375 -0.234375 1.515625 -0.140625 C 1.421875 -0.046875 1.304688 0 1.171875 0 C 1.023438 0 0.90625 -0.046875 0.8125 -0.140625 C 0.726562 -0.234375 0.6875 -0.351562 0.6875 -0.5 L 0.6875 -4.953125 C 0.6875 -5.097656 0.726562 -5.21875 0.8125 -5.3125 C 0.90625 -5.40625 1.023438 -5.453125 1.171875 -5.453125 C 1.304688 -5.453125 1.421875 -5.40625 1.515625 -5.3125 C 1.609375 -5.21875 1.65625 -5.097656 1.65625 -4.953125 Z M 1.15625 -6.140625 C 0.957031 -6.140625 0.816406 -6.175781 0.734375 -6.25 C 0.648438 -6.320312 0.609375 -6.4375 0.609375 -6.59375 L 0.609375 -6.75 C 0.609375 -6.914062 0.65625 -7.03125 0.75 -7.09375 C 0.84375 -7.164062 0.984375 -7.203125 1.171875 -7.203125 C 1.359375 -7.203125 1.492188 -7.164062 1.578125 -7.09375 C 1.671875 -7.019531 1.71875 -6.90625 1.71875 -6.75 L 1.71875 -6.59375 C 1.71875 -6.425781 1.671875 -6.304688 1.578125 -6.234375 C 1.492188 -6.171875 1.351562 -6.140625 1.15625 -6.140625 Z M 1.15625 -6.140625 "/></g></g></g><g fill="#000000" fill-opacity="1"><g transform="translate(195.532665, 212.619406)"><g><path d="M 2.203125 -4.4375 L 2.203125 -1.375 C 2.203125 -1.03125 2.351562 -0.859375 2.65625 -0.859375 C 2.707031 -0.859375 2.773438 -0.867188 2.859375 -0.890625 C 2.941406 -0.910156 3.003906 -0.921875 3.046875 -0.921875 C 3.140625 -0.921875 3.21875 -0.882812 3.28125 -0.8125 C 3.34375 -0.738281 3.375 -0.644531 3.375 -0.53125 C 3.375 -0.382812 3.289062 -0.257812 3.125 -0.15625 C 2.957031 -0.0507812 2.769531 0 2.5625 0 C 2.34375 0 2.132812 -0.0195312 1.9375 -0.0625 C 1.75 -0.113281 1.582031 -0.238281 1.4375 -0.4375 C 1.289062 -0.632812 1.21875 -0.929688 1.21875 -1.328125 L 1.21875 -4.4375 L 0.625 -4.4375 C 0.488281 -4.4375 0.378906 -4.476562 0.296875 -4.5625 C 0.210938 -4.65625 0.171875 -4.769531 0.171875 -4.90625 C 0.171875 -5.03125 0.210938 -5.132812 0.296875 -5.21875 C 0.378906 -5.300781 0.488281 -5.34375 0.625 -5.34375 L 1.21875 -5.34375 L 1.21875 -6.203125 C 1.21875 -6.347656 1.265625 -6.46875 1.359375 -6.5625 C 1.453125 -6.65625 1.570312 -6.703125 1.71875 -6.703125 C 1.851562 -6.703125 1.96875 -6.65625 2.0625 -6.5625 C 2.15625 -6.46875 2.203125 -6.347656 2.203125 -6.203125 L 2.203125 -5.34375 L 3.046875 -5.34375 C 3.179688 -5.34375 3.289062 -5.296875 3.375 -5.203125 C 3.457031 -5.117188 3.5 -5.015625 3.5 -4.890625 C 3.5 -4.753906 3.457031 -4.644531 3.375 -4.5625 C 3.289062 -4.476562 3.179688 -4.4375 3.046875 -4.4375 Z M 2.203125 -4.4375 "/></g></g></g><g fill="#000000" fill-opacity="1"><g transform="translate(206.167184, 212.619406)"><g><path d="M 4.75 -5.40625 C 4.894531 -5.40625 5.015625 -5.351562 5.109375 -5.25 C 5.203125 -5.15625 5.25 -5.039062 5.25 -4.90625 L 5.25 -2.171875 C 5.25 -1.453125 5.050781 -0.894531 4.65625 -0.5 C 4.257812 -0.101562 3.703125 0.09375 2.984375 0.09375 C 2.265625 0.09375 1.707031 -0.101562 1.3125 -0.5 C 0.925781 -0.894531 0.734375 -1.453125 0.734375 -2.171875 L 0.734375 -4.90625 C 0.734375 -5.039062 0.78125 -5.15625 0.875 -5.25 C 0.96875 -5.351562 1.082031 -5.40625 1.21875 -5.40625 C 1.363281 -5.40625 1.484375 -5.351562 1.578125 -5.25 C 1.671875 -5.15625 1.71875 -5.039062 1.71875 -4.90625 L 1.71875 -2.171875 C 1.71875 -1.265625 2.140625 -0.8125 2.984375 -0.8125 C 3.398438 -0.8125 3.71875 -0.925781 3.9375 -1.15625 C 4.15625 -1.382812 4.265625 -1.722656 4.265625 -2.171875 L 4.265625 -4.90625 C 4.265625 -5.039062 4.3125 -5.15625 4.40625 -5.25 C 4.5 -5.351562 4.613281 -5.40625 4.75 -5.40625 Z M 4.75 -5.40625 "/></g></g></g><g fill="#000000" fill-opacity="1"><g transform="translate(218.861845, 212.619406)"><g><path d="M 3.421875 -5.53125 C 3.597656 -5.53125 3.75 -5.484375 3.875 -5.390625 C 4.007812 -5.296875 4.078125 -5.179688 4.078125 -5.046875 C 4.078125 -4.878906 4.035156 -4.75 3.953125 -4.65625 C 3.867188 -4.570312 3.765625 -4.53125 3.640625 -4.53125 C 3.578125 -4.53125 3.484375 -4.550781 3.359375 -4.59375 C 3.210938 -4.644531 3.097656 -4.671875 3.015625 -4.671875 C 2.804688 -4.671875 2.597656 -4.597656 2.390625 -4.453125 C 2.191406 -4.304688 2.03125 -4.101562 1.90625 -3.84375 C 1.78125 -3.582031 1.71875 -3.296875 1.71875 -2.984375 L 1.71875 -0.5 C 1.71875 -0.351562 1.671875 -0.234375 1.578125 -0.140625 C 1.484375 -0.046875 1.363281 0 1.21875 0 C 1.070312 0 0.953125 -0.046875 0.859375 -0.140625 C 0.773438 -0.234375 0.734375 -0.351562 0.734375 -0.5 L 0.734375 -4.90625 C 0.734375 -5.039062 0.78125 -5.15625 0.875 -5.25 C 0.96875 -5.351562 1.082031 -5.40625 1.21875 -5.40625 C 1.363281 -5.40625 1.484375 -5.351562 1.578125 -5.25 C 1.671875 -5.15625 1.71875 -5.039062 1.71875 -4.90625 L 1.71875 -4.390625 C 1.863281 -4.722656 2.085938 -4.992188 2.390625 -5.203125 C 2.691406 -5.410156 3.035156 -5.519531 3.421875 -5.53125 Z M 3.421875 -5.53125 "/></g></g></g><g fill="#000000" fill-opacity="1"><g transform="translate(229.836288, 212.619406)"><g><path d="M 5.46875 -2.90625 C 5.46875 -2.78125 5.414062 -2.675781 5.3125 -2.59375 C 5.21875 -2.507812 5.109375 -2.46875 4.984375 -2.46875 L 1.34375 -2.46875 C 1.394531 -1.96875 1.585938 -1.5625 1.921875 -1.25 C 2.253906 -0.945312 2.660156 -0.796875 3.140625 -0.796875 C 3.472656 -0.796875 3.742188 -0.84375 3.953125 -0.9375 C 4.160156 -1.039062 4.34375 -1.164062 4.5 -1.3125 C 4.601562 -1.375 4.703125 -1.40625 4.796875 -1.40625 C 4.910156 -1.40625 5.003906 -1.363281 5.078125 -1.28125 C 5.160156 -1.207031 5.203125 -1.113281 5.203125 -1 C 5.203125 -0.851562 5.132812 -0.722656 5 -0.609375 C 4.800781 -0.410156 4.535156 -0.238281 4.203125 -0.09375 C 3.878906 0.0390625 3.546875 0.109375 3.203125 0.109375 C 2.640625 0.109375 2.144531 -0.00390625 1.71875 -0.234375 C 1.300781 -0.472656 0.976562 -0.800781 0.75 -1.21875 C 0.519531 -1.644531 0.40625 -2.125 0.40625 -2.65625 C 0.40625 -3.226562 0.519531 -3.734375 0.75 -4.171875 C 0.988281 -4.609375 1.300781 -4.941406 1.6875 -5.171875 C 2.082031 -5.410156 2.503906 -5.53125 2.953125 -5.53125 C 3.390625 -5.53125 3.800781 -5.414062 4.1875 -5.1875 C 4.570312 -4.957031 4.878906 -4.644531 5.109375 -4.25 C 5.347656 -3.851562 5.46875 -3.40625 5.46875 -2.90625 Z M 2.953125 -4.625 C 2.566406 -4.625 2.234375 -4.515625 1.953125 -4.296875 C 1.671875 -4.078125 1.484375 -3.742188 1.390625 -3.296875 L 4.4375 -3.296875 L 4.4375 -3.375 C 4.40625 -3.738281 4.238281 -4.035156 3.9375 -4.265625 C 3.644531 -4.503906 3.316406 -4.625 2.953125 -4.625 Z M 2.953125 -4.625 "/></g></g></g><g fill="#000000" fill-opacity="1"><g transform="translate(174.013294, 325.064657)"><g><path d="M 0.421875 -0.84375 C 0.359375 -0.9375 0.328125 -1.03125 0.328125 -1.125 C 0.328125 -1.257812 0.398438 -1.375 0.546875 -1.46875 C 0.617188 -1.519531 0.695312 -1.546875 0.78125 -1.546875 C 0.90625 -1.546875 1.019531 -1.492188 1.125 -1.390625 C 1.332031 -1.160156 1.550781 -0.984375 1.78125 -0.859375 C 2.019531 -0.742188 2.304688 -0.6875 2.640625 -0.6875 C 2.898438 -0.695312 3.128906 -0.757812 3.328125 -0.875 C 3.523438 -0.988281 3.625 -1.171875 3.625 -1.421875 C 3.625 -1.660156 3.519531 -1.835938 3.3125 -1.953125 C 3.113281 -2.078125 2.820312 -2.191406 2.4375 -2.296875 C 2.050781 -2.398438 1.726562 -2.507812 1.46875 -2.625 C 1.21875 -2.738281 1.003906 -2.898438 0.828125 -3.109375 C 0.648438 -3.328125 0.5625 -3.613281 0.5625 -3.96875 C 0.5625 -4.28125 0.648438 -4.550781 0.828125 -4.78125 C 1.003906 -5.019531 1.238281 -5.203125 1.53125 -5.328125 C 1.820312 -5.460938 2.140625 -5.53125 2.484375 -5.53125 C 2.816406 -5.53125 3.144531 -5.46875 3.46875 -5.34375 C 3.789062 -5.21875 4.054688 -5.03125 4.265625 -4.78125 C 4.347656 -4.675781 4.390625 -4.570312 4.390625 -4.46875 C 4.390625 -4.363281 4.335938 -4.257812 4.234375 -4.15625 C 4.160156 -4.09375 4.070312 -4.0625 3.96875 -4.0625 C 3.84375 -4.0625 3.742188 -4.101562 3.671875 -4.1875 C 3.523438 -4.351562 3.347656 -4.476562 3.140625 -4.5625 C 2.929688 -4.65625 2.695312 -4.703125 2.4375 -4.703125 C 2.175781 -4.703125 1.953125 -4.648438 1.765625 -4.546875 C 1.585938 -4.441406 1.5 -4.257812 1.5 -4 C 1.507812 -3.757812 1.613281 -3.582031 1.8125 -3.46875 C 2.019531 -3.351562 2.332031 -3.238281 2.75 -3.125 C 3.113281 -3.03125 3.414062 -2.925781 3.65625 -2.8125 C 3.894531 -2.707031 4.097656 -2.546875 4.265625 -2.328125 C 4.429688 -2.109375 4.515625 -1.820312 4.515625 -1.46875 C 4.515625 -1.144531 4.421875 -0.863281 4.234375 -0.625 C 4.046875 -0.394531 3.800781 -0.210938 3.5 -0.078125 C 3.207031 0.046875 2.894531 0.109375 2.5625 0.109375 C 2.125 0.109375 1.71875 0.0351562 1.34375 -0.109375 C 0.976562 -0.265625 0.671875 -0.507812 0.421875 -0.84375 Z M 0.421875 -0.84375 "/></g></g></g><g fill="#000000" fill-opacity="1"><g transform="translate(179.545183, 325.064657)"><g><path d="M 1.65625 -0.5 C 1.65625 -0.351562 1.609375 -0.234375 1.515625 -0.140625 C 1.421875 -0.046875 1.304688 0 1.171875 0 C 1.023438 0 0.90625 -0.046875 0.8125 -0.140625 C 0.726562 -0.234375 0.6875 -0.351562 0.6875 -0.5 L 0.6875 -4.953125 C 0.6875 -5.097656 0.726562 -5.21875 0.8125 -5.3125 C 0.90625 -5.40625 1.023438 -5.453125 1.171875 -5.453125 C 1.304688 -5.453125 1.421875 -5.40625 1.515625 -5.3125 C 1.609375 -5.21875 1.65625 -5.097656 1.65625 -4.953125 Z M 1.15625 -6.140625 C 0.957031 -6.140625 0.816406 -6.175781 0.734375 -6.25 C 0.648438 -6.320312 0.609375 -6.4375 0.609375 -6.59375 L 0.609375 -6.75 C 0.609375 -6.914062 0.65625 -7.03125 0.75 -7.09375 C 0.84375 -7.164062 0.984375 -7.203125 1.171875 -7.203125 C 1.359375 -7.203125 1.492188 -7.164062 1.578125 -7.09375 C 1.671875 -7.019531 1.71875 -6.90625 1.71875 -6.75 L 1.71875 -6.59375 C 1.71875 -6.425781 1.671875 -6.304688 1.578125 -6.234375 C 1.492188 -6.171875 1.351562 -6.140625 1.15625 -6.140625 Z M 1.15625 -6.140625 "/></g></g></g><g fill="#000000" fill-opacity="1"><g transform="translate(182.501877, 325.064657)"><g><path d="M 3.484375 -5.53125 C 4.722656 -5.53125 5.34375 -4.785156 5.34375 -3.296875 L 5.34375 -0.5 C 5.34375 -0.351562 5.296875 -0.234375 5.203125 -0.140625 C 5.109375 -0.046875 4.988281 0 4.84375 0 C 4.707031 0 4.59375 -0.046875 4.5 -0.140625 C 4.40625 -0.234375 4.359375 -0.351562 4.359375 -0.5 L 4.359375 -3.296875 C 4.359375 -3.691406 4.265625 -4.007812 4.078125 -4.25 C 3.898438 -4.5 3.597656 -4.625 3.171875 -4.625 C 2.898438 -4.625 2.648438 -4.5625 2.421875 -4.4375 C 2.203125 -4.320312 2.03125 -4.160156 1.90625 -3.953125 C 1.78125 -3.753906 1.71875 -3.535156 1.71875 -3.296875 L 1.71875 -0.5 C 1.71875 -0.351562 1.671875 -0.234375 1.578125 -0.140625 C 1.484375 -0.046875 1.363281 0 1.21875 0 C 1.070312 0 0.953125 -0.046875 0.859375 -0.140625 C 0.773438 -0.234375 0.734375 -0.351562 0.734375 -0.5 L 0.734375 -4.90625 C 0.734375 -5.039062 0.78125 -5.15625 0.875 -5.25 C 0.96875 -5.351562 1.082031 -5.40625 1.21875 -5.40625 C 1.363281 -5.40625 1.484375 -5.351562 1.578125 -5.25 C 1.671875 -5.15625 1.71875 -5.039062 1.71875 -4.90625 L 1.71875 -4.546875 C 1.894531 -4.816406 2.140625 -5.046875 2.453125 -5.234375 C 2.773438 -5.429688 3.117188 -5.53125 3.484375 -5.53125 Z M 3.484375 -5.53125 "/></g></g></g><g fill="#000000" fill-opacity="1"><g transform="translate(189.187445, 325.064657)"><g><path d="M 3.078125 -5.53125 C 3.617188 -5.53125 4.070312 -5.441406 4.4375 -5.265625 C 4.800781 -5.097656 4.984375 -4.878906 4.984375 -4.609375 C 4.984375 -4.492188 4.941406 -4.390625 4.859375 -4.296875 C 4.785156 -4.203125 4.691406 -4.15625 4.578125 -4.15625 C 4.484375 -4.15625 4.410156 -4.164062 4.359375 -4.1875 C 4.316406 -4.21875 4.25 -4.265625 4.15625 -4.328125 C 4.113281 -4.367188 4.046875 -4.414062 3.953125 -4.46875 C 3.878906 -4.507812 3.765625 -4.546875 3.609375 -4.578125 C 3.453125 -4.609375 3.316406 -4.625 3.203125 -4.625 C 2.835938 -4.625 2.515625 -4.539062 2.234375 -4.375 C 1.960938 -4.207031 1.75 -3.976562 1.59375 -3.6875 C 1.445312 -3.394531 1.375 -3.070312 1.375 -2.71875 C 1.375 -2.351562 1.445312 -2.023438 1.59375 -1.734375 C 1.75 -1.441406 1.957031 -1.210938 2.21875 -1.046875 C 2.488281 -0.878906 2.796875 -0.796875 3.140625 -0.796875 C 3.503906 -0.796875 3.796875 -0.851562 4.015625 -0.96875 C 4.054688 -1 4.117188 -1.046875 4.203125 -1.109375 C 4.273438 -1.160156 4.335938 -1.195312 4.390625 -1.21875 C 4.441406 -1.25 4.503906 -1.265625 4.578125 -1.265625 C 4.710938 -1.265625 4.816406 -1.222656 4.890625 -1.140625 C 4.972656 -1.054688 5.015625 -0.941406 5.015625 -0.796875 C 5.015625 -0.660156 4.921875 -0.519531 4.734375 -0.375 C 4.554688 -0.238281 4.316406 -0.125 4.015625 -0.03125 C 3.710938 0.0625 3.382812 0.109375 3.03125 0.109375 C 2.507812 0.109375 2.046875 -0.0078125 1.640625 -0.25 C 1.242188 -0.5 0.9375 -0.835938 0.71875 -1.265625 C 0.507812 -1.703125 0.40625 -2.1875 0.40625 -2.71875 C 0.40625 -3.238281 0.515625 -3.710938 0.734375 -4.140625 C 0.960938 -4.578125 1.28125 -4.914062 1.6875 -5.15625 C 2.09375 -5.40625 2.554688 -5.53125 3.078125 -5.53125 Z M 3.078125 -5.53125 "/></g></g></g><g fill="#000000" fill-opacity="1"><g transform="translate(195.100457, 325.064657)"><g><path d="M 5.46875 -2.90625 C 5.46875 -2.78125 5.414062 -2.675781 5.3125 -2.59375 C 5.21875 -2.507812 5.109375 -2.46875 4.984375 -2.46875 L 1.34375 -2.46875 C 1.394531 -1.96875 1.585938 -1.5625 1.921875 -1.25 C 2.253906 -0.945312 2.660156 -0.796875 3.140625 -0.796875 C 3.472656 -0.796875 3.742188 -0.84375 3.953125 -0.9375 C 4.160156 -1.039062 4.34375 -1.164062 4.5 -1.3125 C 4.601562 -1.375 4.703125 -1.40625 4.796875 -1.40625 C 4.910156 -1.40625 5.003906 -1.363281 5.078125 -1.28125 C 5.160156 -1.207031 5.203125 -1.113281 5.203125 -1 C 5.203125 -0.851562 5.132812 -0.722656 5 -0.609375 C 4.800781 -0.410156 4.535156 -0.238281 4.203125 -0.09375 C 3.878906 0.0390625 3.546875 0.109375 3.203125 0.109375 C 2.640625 0.109375 2.144531 -0.00390625 1.71875 -0.234375 C 1.300781 -0.472656 0.976562 -0.800781 0.75 -1.21875 C 0.519531 -1.644531 0.40625 -2.125 0.40625 -2.65625 C 0.40625 -3.226562 0.519531 -3.734375 0.75 -4.171875 C 0.988281 -4.609375 1.300781 -4.941406 1.6875 -5.171875 C 2.082031 -5.410156 2.503906 -5.53125 2.953125 -5.53125 C 3.390625 -5.53125 3.800781 -5.414062 4.1875 -5.1875 C 4.570312 -4.957031 4.878906 -4.644531 5.109375 -4.25 C 5.347656 -3.851562 5.46875 -3.40625 5.46875 -2.90625 Z M 2.953125 -4.625 C 2.566406 -4.625 2.234375 -4.515625 1.953125 -4.296875 C 1.671875 -4.078125 1.484375 -3.742188 1.390625 -3.296875 L 4.4375 -3.296875 L 4.4375 -3.375 C 4.40625 -3.738281 4.238281 -4.035156 3.9375 -4.265625 C 3.644531 -4.503906 3.316406 -4.625 2.953125 -4.625 Z M 2.953125 -4.625 "/></g></g></g><g fill="#000000" fill-opacity="1"><g transform="translate(175.114856, 334.814656)"><g><path d="M 4.828125 -0.90625 C 4.953125 -0.90625 5.0625 -0.859375 5.15625 -0.765625 C 5.25 -0.679688 5.296875 -0.570312 5.296875 -0.4375 C 5.296875 -0.3125 5.25 -0.207031 5.15625 -0.125 C 5.0625 -0.0390625 4.953125 0 4.828125 0 L 1.171875 0 C 1.023438 0 0.90625 -0.0390625 0.8125 -0.125 C 0.726562 -0.21875 0.6875 -0.332031 0.6875 -0.46875 C 0.6875 -0.59375 0.734375 -0.710938 0.828125 -0.828125 L 3.140625 -3.328125 C 3.773438 -4.003906 4.09375 -4.601562 4.09375 -5.125 C 4.09375 -5.5 3.96875 -5.804688 3.71875 -6.046875 C 3.476562 -6.296875 3.171875 -6.421875 2.796875 -6.421875 C 2.535156 -6.421875 2.289062 -6.347656 2.0625 -6.203125 C 1.832031 -6.054688 1.644531 -5.847656 1.5 -5.578125 C 1.382812 -5.429688 1.253906 -5.359375 1.109375 -5.359375 C 0.984375 -5.359375 0.867188 -5.398438 0.765625 -5.484375 C 0.671875 -5.578125 0.625 -5.6875 0.625 -5.8125 C 0.625 -5.882812 0.648438 -5.960938 0.703125 -6.046875 C 0.753906 -6.128906 0.828125 -6.222656 0.921875 -6.328125 C 1.148438 -6.628906 1.4375 -6.867188 1.78125 -7.046875 C 2.132812 -7.234375 2.488281 -7.328125 2.84375 -7.328125 C 3.300781 -7.328125 3.695312 -7.234375 4.03125 -7.046875 C 4.375 -6.859375 4.632812 -6.601562 4.8125 -6.28125 C 5 -5.957031 5.09375 -5.585938 5.09375 -5.171875 C 5.09375 -4.378906 4.664062 -3.523438 3.8125 -2.609375 L 2.265625 -0.90625 Z M 4.828125 -0.90625 "/></g></g></g><g fill="#000000" fill-opacity="1"><g transform="translate(181.388391, 334.814656)"><g><path d="M 3.125 0.109375 C 2.5625 0.109375 2.078125 -0.046875 1.671875 -0.359375 C 1.273438 -0.679688 0.972656 -1.117188 0.765625 -1.671875 C 0.566406 -2.234375 0.46875 -2.878906 0.46875 -3.609375 C 0.46875 -4.335938 0.566406 -4.976562 0.765625 -5.53125 C 0.972656 -6.09375 1.273438 -6.53125 1.671875 -6.84375 C 2.078125 -7.164062 2.5625 -7.328125 3.125 -7.328125 C 3.6875 -7.328125 4.164062 -7.164062 4.5625 -6.84375 C 4.96875 -6.53125 5.269531 -6.09375 5.46875 -5.53125 C 5.675781 -4.976562 5.78125 -4.335938 5.78125 -3.609375 C 5.78125 -2.878906 5.675781 -2.234375 5.46875 -1.671875 C 5.269531 -1.117188 4.96875 -0.679688 4.5625 -0.359375 C 4.164062 -0.046875 3.6875 0.109375 3.125 0.109375 Z M 3.125 -0.890625 C 3.625 -0.890625 4.015625 -1.125 4.296875 -1.59375 C 4.578125 -2.070312 4.71875 -2.742188 4.71875 -3.609375 C 4.71875 -4.472656 4.578125 -5.140625 4.296875 -5.609375 C 4.015625 -6.085938 3.625 -6.328125 3.125 -6.328125 C 2.625 -6.328125 2.234375 -6.085938 1.953125 -5.609375 C 1.671875 -5.140625 1.53125 -4.472656 1.53125 -3.609375 C 1.53125 -2.742188 1.671875 -2.070312 1.953125 -1.59375 C 2.234375 -1.125 2.625 -0.890625 3.125 -0.890625 Z M 3.125 -0.890625 "/></g></g></g><g fill="#000000" fill-opacity="1"><g transform="translate(188.249077, 334.814656)"><g><path d="M 4.828125 -0.90625 C 4.953125 -0.90625 5.0625 -0.859375 5.15625 -0.765625 C 5.25 -0.679688 5.296875 -0.570312 5.296875 -0.4375 C 5.296875 -0.3125 5.25 -0.207031 5.15625 -0.125 C 5.0625 -0.0390625 4.953125 0 4.828125 0 L 1.171875 0 C 1.023438 0 0.90625 -0.0390625 0.8125 -0.125 C 0.726562 -0.21875 0.6875 -0.332031 0.6875 -0.46875 C 0.6875 -0.59375 0.734375 -0.710938 0.828125 -0.828125 L 3.140625 -3.328125 C 3.773438 -4.003906 4.09375 -4.601562 4.09375 -5.125 C 4.09375 -5.5 3.96875 -5.804688 3.71875 -6.046875 C 3.476562 -6.296875 3.171875 -6.421875 2.796875 -6.421875 C 2.535156 -6.421875 2.289062 -6.347656 2.0625 -6.203125 C 1.832031 -6.054688 1.644531 -5.847656 1.5 -5.578125 C 1.382812 -5.429688 1.253906 -5.359375 1.109375 -5.359375 C 0.984375 -5.359375 0.867188 -5.398438 0.765625 -5.484375 C 0.671875 -5.578125 0.625 -5.6875 0.625 -5.8125 C 0.625 -5.882812 0.648438 -5.960938 0.703125 -6.046875 C 0.753906 -6.128906 0.828125 -6.222656 0.921875 -6.328125 C 1.148438 -6.628906 1.4375 -6.867188 1.78125 -7.046875 C 2.132812 -7.234375 2.488281 -7.328125 2.84375 -7.328125 C 3.300781 -7.328125 3.695312 -7.234375 4.03125 -7.046875 C 4.375 -6.859375 4.632812 -6.601562 4.8125 -6.28125 C 5 -5.957031 5.09375 -5.585938 5.09375 -5.171875 C 5.09375 -4.378906 4.664062 -3.523438 3.8125 -2.609375 L 2.265625 -0.90625 Z M 4.828125 -0.90625 "/></g></g></g><g fill="#000000" fill-opacity="1"><g transform="translate(194.522612, 334.814656)"><g><path d="M 2.84375 -4.5625 C 3.226562 -4.5625 3.578125 -4.460938 3.890625 -4.265625 C 4.203125 -4.078125 4.445312 -3.8125 4.625 -3.46875 C 4.8125 -3.132812 4.90625 -2.757812 4.90625 -2.34375 C 4.90625 -1.851562 4.789062 -1.421875 4.5625 -1.046875 C 4.332031 -0.679688 4.015625 -0.394531 3.609375 -0.1875 C 3.210938 0.0078125 2.757812 0.109375 2.25 0.109375 C 1.96875 0.109375 1.695312 0.0703125 1.4375 0 C 1.1875 -0.0820312 0.96875 -0.195312 0.78125 -0.34375 C 0.59375 -0.445312 0.5 -0.585938 0.5 -0.765625 C 0.5 -0.890625 0.546875 -1.007812 0.640625 -1.125 C 0.734375 -1.238281 0.847656 -1.296875 0.984375 -1.296875 C 1.109375 -1.296875 1.226562 -1.25 1.34375 -1.15625 C 1.632812 -0.894531 1.988281 -0.765625 2.40625 -0.765625 C 2.675781 -0.765625 2.925781 -0.828125 3.15625 -0.953125 C 3.382812 -1.078125 3.566406 -1.253906 3.703125 -1.484375 C 3.847656 -1.710938 3.921875 -1.976562 3.921875 -2.28125 C 3.921875 -2.726562 3.78125 -3.070312 3.5 -3.3125 C 3.226562 -3.550781 2.898438 -3.671875 2.515625 -3.671875 C 2.398438 -3.671875 2.242188 -3.644531 2.046875 -3.59375 C 1.890625 -3.550781 1.773438 -3.53125 1.703125 -3.53125 C 1.578125 -3.53125 1.476562 -3.570312 1.40625 -3.65625 C 1.332031 -3.75 1.296875 -3.859375 1.296875 -3.984375 C 1.296875 -4.066406 1.304688 -4.132812 1.328125 -4.1875 C 1.359375 -4.238281 1.40625 -4.304688 1.46875 -4.390625 L 3.21875 -6.3125 L 0.828125 -6.3125 C 0.703125 -6.3125 0.59375 -6.351562 0.5 -6.4375 C 0.414062 -6.53125 0.375 -6.644531 0.375 -6.78125 C 0.375 -6.90625 0.414062 -7.007812 0.5 -7.09375 C 0.59375 -7.175781 0.703125 -7.21875 0.828125 -7.21875 L 4.125 -7.21875 C 4.28125 -7.21875 4.398438 -7.171875 4.484375 -7.078125 C 4.578125 -6.984375 4.625 -6.863281 4.625 -6.71875 C 4.625 -6.59375 4.5625 -6.46875 4.4375 -6.34375 Z M 2.84375 -4.5625 "/></g></g></g></svg>