<svg xmlns="http://www.w3.org/2000/svg" xmlns:xlink="http://www.w3.org/1999/xlink" width="300" zoomAndPan="magnify" viewBox="0 0 224.87999 74.999997" height="100" preserveAspectRatio="xMidYMid meet" version="1.0"><defs><g/></defs><g fill="#000000" fill-opacity="1"><g transform="translate(27.126344, 34.547282)"><g><path d="M 2.296875 -13.09375 L 2.296875 -15.875 C 2.316406 -17.832031 2.773438 -19.398438 3.671875 -20.578125 C 4.578125 -21.753906 5.828125 -22.34375 7.421875 -22.34375 C 8.109375 -22.34375 8.757812 -22.242188 9.375 -22.046875 C 10 -21.847656 10.445312 -21.648438 10.71875 -21.453125 L 11.15625 -21.171875 L 9.578125 -17.96875 C 9.171875 -18.207031 8.71875 -18.328125 8.21875 -18.328125 C 7.65625 -18.328125 7.28125 -18.132812 7.09375 -17.75 C 6.90625 -17.375 6.8125 -16.707031 6.8125 -15.75 L 6.8125 -13.09375 L 9.828125 -13.09375 L 9.828125 -9.65625 L 6.8125 -9.65625 L 6.8125 0 L 2.296875 0 L 2.296875 -9.65625 L 0.40625 -9.65625 L 0.40625 -13.09375 Z M 2.296875 -13.09375 "/></g></g></g><g fill="#000000" fill-opacity="1"><g transform="translate(34.301583, 34.547282)"><g><path d="M 5.796875 -13.09375 L 5.796875 -6.875 C 5.796875 -5.570312 5.988281 -4.648438 6.375 -4.109375 C 6.769531 -3.566406 7.4375 -3.296875 8.375 -3.296875 C 9.3125 -3.296875 9.972656 -3.566406 10.359375 -4.109375 C 10.753906 -4.648438 10.953125 -5.570312 10.953125 -6.875 L 10.953125 -13.09375 L 15.46875 -13.09375 L 15.46875 -5.765625 C 15.46875 -3.585938 14.898438 -2.015625 13.765625 -1.046875 C 12.640625 -0.0859375 10.84375 0.390625 8.375 0.390625 C 5.90625 0.390625 4.101562 -0.0859375 2.96875 -1.046875 C 1.84375 -2.015625 1.28125 -3.585938 1.28125 -5.765625 L 1.28125 -13.09375 Z M 5.796875 -13.09375 "/></g></g></g><g fill="#000000" fill-opacity="1"><g transform="translate(48.652656, 34.547282)"><g><path d="M 1.53125 0 L 1.53125 -13.09375 L 6.046875 -13.09375 L 6.046875 -11.203125 L 6.109375 -11.203125 C 6.140625 -11.273438 6.191406 -11.359375 6.265625 -11.453125 C 6.347656 -11.554688 6.515625 -11.734375 6.765625 -11.984375 C 7.023438 -12.242188 7.296875 -12.476562 7.578125 -12.6875 C 7.867188 -12.894531 8.242188 -13.078125 8.703125 -13.234375 C 9.160156 -13.398438 9.628906 -13.484375 10.109375 -13.484375 C 10.597656 -13.484375 11.082031 -13.414062 11.5625 -13.28125 C 12.039062 -13.144531 12.390625 -13.007812 12.609375 -12.875 L 12.96875 -12.65625 L 11.078125 -8.828125 C 10.515625 -9.304688 9.734375 -9.546875 8.734375 -9.546875 C 8.191406 -9.546875 7.722656 -9.425781 7.328125 -9.1875 C 6.929688 -8.945312 6.648438 -8.65625 6.484375 -8.3125 C 6.328125 -7.976562 6.210938 -7.691406 6.140625 -7.453125 C 6.078125 -7.210938 6.046875 -7.023438 6.046875 -6.890625 L 6.046875 0 Z M 1.53125 0 "/></g></g></g><g fill="#000000" fill-opacity="1"><g transform="translate(58.968912, 34.547282)"><g><path d="M 1.53125 0 L 1.53125 -13.09375 L 6.046875 -13.09375 L 6.046875 -11.71875 L 6.109375 -11.71875 C 7.273438 -12.894531 8.523438 -13.484375 9.859375 -13.484375 C 10.503906 -13.484375 11.144531 -13.394531 11.78125 -13.21875 C 12.414062 -13.050781 13.023438 -12.785156 13.609375 -12.421875 C 14.203125 -12.066406 14.679688 -11.5625 15.046875 -10.90625 C 15.410156 -10.257812 15.59375 -9.5 15.59375 -8.625 L 15.59375 0 L 11.078125 0 L 11.078125 -7.40625 C 11.078125 -8.082031 10.859375 -8.675781 10.421875 -9.1875 C 9.992188 -9.695312 9.429688 -9.953125 8.734375 -9.953125 C 8.046875 -9.953125 7.425781 -9.6875 6.875 -9.15625 C 6.320312 -8.632812 6.046875 -8.050781 6.046875 -7.40625 L 6.046875 0 Z M 1.53125 0 "/></g></g></g><g fill="#000000" fill-opacity="1"><g transform="translate(73.447665, 34.547282)"><g><path d="M 1.953125 -20.390625 C 2.484375 -20.921875 3.113281 -21.1875 3.84375 -21.1875 C 4.582031 -21.1875 5.210938 -20.921875 5.734375 -20.390625 C 6.265625 -19.867188 6.53125 -19.238281 6.53125 -18.5 C 6.53125 -17.769531 6.265625 -17.140625 5.734375 -16.609375 C 5.210938 -16.085938 4.582031 -15.828125 3.84375 -15.828125 C 3.113281 -15.828125 2.484375 -16.085938 1.953125 -16.609375 C 1.429688 -17.140625 1.171875 -17.769531 1.171875 -18.5 C 1.171875 -19.238281 1.429688 -19.867188 1.953125 -20.390625 Z M 1.53125 -13.09375 L 1.53125 0 L 6.046875 0 L 6.046875 -13.09375 Z M 1.53125 -13.09375 "/></g></g></g><g fill="#000000" fill-opacity="1"><g transform="translate(78.758723, 34.547282)"><g><path d="M 2.296875 -13.09375 L 2.296875 -17.96875 L 6.8125 -17.96875 L 6.8125 -13.09375 L 9.578125 -13.09375 L 9.578125 -9.65625 L 6.8125 -9.65625 L 6.8125 -5.484375 C 6.8125 -4.273438 7.15625 -3.671875 7.84375 -3.671875 C 8.007812 -3.671875 8.1875 -3.703125 8.375 -3.765625 C 8.5625 -3.835938 8.707031 -3.910156 8.8125 -3.984375 L 8.96875 -4.078125 L 10.078125 -0.4375 C 9.109375 0.113281 8.003906 0.390625 6.765625 0.390625 C 5.910156 0.390625 5.175781 0.238281 4.5625 -0.0625 C 3.957031 -0.363281 3.492188 -0.765625 3.171875 -1.265625 C 2.859375 -1.765625 2.632812 -2.289062 2.5 -2.84375 C 2.363281 -3.394531 2.296875 -3.988281 2.296875 -4.625 L 2.296875 -9.65625 L 0.40625 -9.65625 L 0.40625 -13.09375 Z M 2.296875 -13.09375 "/></g></g></g><g fill="#000000" fill-opacity="1"><g transform="translate(86.444698, 34.547282)"><g><path d="M 5.796875 -13.09375 L 5.796875 -6.875 C 5.796875 -5.570312 5.988281 -4.648438 6.375 -4.109375 C 6.769531 -3.566406 7.4375 -3.296875 8.375 -3.296875 C 9.3125 -3.296875 9.972656 -3.566406 10.359375 -4.109375 C 10.753906 -4.648438 10.953125 -5.570312 10.953125 -6.875 L 10.953125 -13.09375 L 15.46875 -13.09375 L 15.46875 -5.765625 C 15.46875 -3.585938 14.898438 -2.015625 13.765625 -1.046875 C 12.640625 -0.0859375 10.84375 0.390625 8.375 0.390625 C 5.90625 0.390625 4.101562 -0.0859375 2.96875 -1.046875 C 1.84375 -2.015625 1.28125 -3.585938 1.28125 -5.765625 L 1.28125 -13.09375 Z M 5.796875 -13.09375 "/></g></g></g><g fill="#000000" fill-opacity="1"><g transform="translate(100.795769, 34.547282)"><g><path d="M 1.53125 0 L 1.53125 -13.09375 L 6.046875 -13.09375 L 6.046875 -11.203125 L 6.109375 -11.203125 C 6.140625 -11.273438 6.191406 -11.359375 6.265625 -11.453125 C 6.347656 -11.554688 6.515625 -11.734375 6.765625 -11.984375 C 7.023438 -12.242188 7.296875 -12.476562 7.578125 -12.6875 C 7.867188 -12.894531 8.242188 -13.078125 8.703125 -13.234375 C 9.160156 -13.398438 9.628906 -13.484375 10.109375 -13.484375 C 10.597656 -13.484375 11.082031 -13.414062 11.5625 -13.28125 C 12.039062 -13.144531 12.390625 -13.007812 12.609375 -12.875 L 12.96875 -12.65625 L 11.078125 -8.828125 C 10.515625 -9.304688 9.734375 -9.546875 8.734375 -9.546875 C 8.191406 -9.546875 7.722656 -9.425781 7.328125 -9.1875 C 6.929688 -8.945312 6.648438 -8.65625 6.484375 -8.3125 C 6.328125 -7.976562 6.210938 -7.691406 6.140625 -7.453125 C 6.078125 -7.210938 6.046875 -7.023438 6.046875 -6.890625 L 6.046875 0 Z M 1.53125 0 "/></g></g></g><g fill="#000000" fill-opacity="1"><g transform="translate(111.112023, 34.547282)"><g><path d="M 14.78125 -5.921875 L 5.28125 -5.921875 C 5.28125 -5.003906 5.578125 -4.320312 6.171875 -3.875 C 6.773438 -3.4375 7.425781 -3.21875 8.125 -3.21875 C 8.851562 -3.21875 9.429688 -3.3125 9.859375 -3.5 C 10.285156 -3.695312 10.769531 -4.085938 11.3125 -4.671875 L 14.578125 -3.03125 C 13.210938 -0.75 10.945312 0.390625 7.78125 0.390625 C 5.8125 0.390625 4.117188 -0.285156 2.703125 -1.640625 C 1.296875 -2.992188 0.59375 -4.625 0.59375 -6.53125 C 0.59375 -8.4375 1.296875 -10.070312 2.703125 -11.4375 C 4.117188 -12.800781 5.8125 -13.484375 7.78125 -13.484375 C 9.863281 -13.484375 11.554688 -12.878906 12.859375 -11.671875 C 14.160156 -10.472656 14.8125 -8.757812 14.8125 -6.53125 C 14.8125 -6.226562 14.800781 -6.023438 14.78125 -5.921875 Z M 5.40625 -8.421875 L 10.390625 -8.421875 C 10.285156 -9.109375 10.015625 -9.632812 9.578125 -10 C 9.148438 -10.363281 8.597656 -10.546875 7.921875 -10.546875 C 7.171875 -10.546875 6.570312 -10.347656 6.125 -9.953125 C 5.6875 -9.566406 5.445312 -9.054688 5.40625 -8.421875 Z M 5.40625 -8.421875 "/></g></g></g><g fill="#000000" fill-opacity="1"><g transform="translate(124.109636, 34.547282)"><g><path d="M 4.84375 -13.09375 L 8.046875 -5.96875 L 11.234375 -13.09375 L 16.59375 -13.09375 L 9.578125 0 L 6.515625 0 L -0.515625 -13.09375 Z M 4.84375 -13.09375 "/></g></g></g><g fill="#000000" fill-opacity="1"><g transform="translate(137.796747, 34.547282)"><g><path d="M 14.78125 -5.921875 L 5.28125 -5.921875 C 5.28125 -5.003906 5.578125 -4.320312 6.171875 -3.875 C 6.773438 -3.4375 7.425781 -3.21875 8.125 -3.21875 C 8.851562 -3.21875 9.429688 -3.3125 9.859375 -3.5 C 10.285156 -3.695312 10.769531 -4.085938 11.3125 -4.671875 L 14.578125 -3.03125 C 13.210938 -0.75 10.945312 0.390625 7.78125 0.390625 C 5.8125 0.390625 4.117188 -0.285156 2.703125 -1.640625 C 1.296875 -2.992188 0.59375 -4.625 0.59375 -6.53125 C 0.59375 -8.4375 1.296875 -10.070312 2.703125 -11.4375 C 4.117188 -12.800781 5.8125 -13.484375 7.78125 -13.484375 C 9.863281 -13.484375 11.554688 -12.878906 12.859375 -11.671875 C 14.160156 -10.472656 14.8125 -8.757812 14.8125 -6.53125 C 14.8125 -6.226562 14.800781 -6.023438 14.78125 -5.921875 Z M 5.40625 -8.421875 L 10.390625 -8.421875 C 10.285156 -9.109375 10.015625 -9.632812 9.578125 -10 C 9.148438 -10.363281 8.597656 -10.546875 7.921875 -10.546875 C 7.171875 -10.546875 6.570312 -10.347656 6.125 -9.953125 C 5.6875 -9.566406 5.445312 -9.054688 5.40625 -8.421875 Z M 5.40625 -8.421875 "/></g></g></g><g fill="#000000" fill-opacity="1"><g transform="translate(150.79436, 34.547282)"><g><path d="M 1.53125 0 L 1.53125 -13.09375 L 6.046875 -13.09375 L 6.046875 -11.203125 L 6.109375 -11.203125 C 6.140625 -11.273438 6.191406 -11.359375 6.265625 -11.453125 C 6.347656 -11.554688 6.515625 -11.734375 6.765625 -11.984375 C 7.023438 -12.242188 7.296875 -12.476562 7.578125 -12.6875 C 7.867188 -12.894531 8.242188 -13.078125 8.703125 -13.234375 C 9.160156 -13.398438 9.628906 -13.484375 10.109375 -13.484375 C 10.597656 -13.484375 11.082031 -13.414062 11.5625 -13.28125 C 12.039062 -13.144531 12.390625 -13.007812 12.609375 -12.875 L 12.96875 -12.65625 L 11.078125 -8.828125 C 10.515625 -9.304688 9.734375 -9.546875 8.734375 -9.546875 C 8.191406 -9.546875 7.722656 -9.425781 7.328125 -9.1875 C 6.929688 -8.945312 6.648438 -8.65625 6.484375 -8.3125 C 6.328125 -7.976562 6.210938 -7.691406 6.140625 -7.453125 C 6.078125 -7.210938 6.046875 -7.023438 6.046875 -6.890625 L 6.046875 0 Z M 1.53125 0 "/></g></g></g><g fill="#000000" fill-opacity="1"><g transform="translate(161.110615, 34.547282)"><g><path d="M 7.21875 -13.484375 C 7.96875 -13.484375 8.707031 -13.394531 9.4375 -13.21875 C 10.175781 -13.050781 10.722656 -12.882812 11.078125 -12.71875 L 11.609375 -12.453125 L 10.140625 -9.5 C 9.117188 -10.039062 8.144531 -10.3125 7.21875 -10.3125 C 6.707031 -10.3125 6.347656 -10.253906 6.140625 -10.140625 C 5.929688 -10.035156 5.828125 -9.828125 5.828125 -9.515625 C 5.828125 -9.453125 5.832031 -9.382812 5.84375 -9.3125 C 5.863281 -9.25 5.898438 -9.1875 5.953125 -9.125 C 6.003906 -9.0625 6.050781 -9.007812 6.09375 -8.96875 C 6.132812 -8.925781 6.203125 -8.878906 6.296875 -8.828125 C 6.398438 -8.773438 6.484375 -8.738281 6.546875 -8.71875 C 6.609375 -8.695312 6.707031 -8.660156 6.84375 -8.609375 C 6.976562 -8.554688 7.078125 -8.515625 7.140625 -8.484375 C 7.210938 -8.460938 7.328125 -8.425781 7.484375 -8.375 C 7.648438 -8.320312 7.773438 -8.285156 7.859375 -8.265625 C 8.390625 -8.117188 8.847656 -7.953125 9.234375 -7.765625 C 9.628906 -7.578125 10.039062 -7.320312 10.46875 -7 C 10.90625 -6.675781 11.242188 -6.265625 11.484375 -5.765625 C 11.722656 -5.273438 11.84375 -4.710938 11.84375 -4.078125 C 11.84375 -1.097656 9.773438 0.390625 5.640625 0.390625 C 4.703125 0.390625 3.8125 0.242188 2.96875 -0.046875 C 2.125 -0.335938 1.519531 -0.628906 1.15625 -0.921875 L 0.59375 -1.375 L 2.421875 -4.46875 C 2.554688 -4.351562 2.734375 -4.210938 2.953125 -4.046875 C 3.179688 -3.878906 3.582031 -3.65625 4.15625 -3.375 C 4.738281 -3.101562 5.242188 -2.96875 5.671875 -2.96875 C 6.609375 -2.96875 7.078125 -3.28125 7.078125 -3.90625 C 7.078125 -4.195312 6.957031 -4.421875 6.71875 -4.578125 C 6.476562 -4.742188 6.070312 -4.925781 5.5 -5.125 C 4.925781 -5.332031 4.476562 -5.519531 4.15625 -5.6875 C 3.34375 -6.113281 2.695312 -6.59375 2.21875 -7.125 C 1.738281 -7.664062 1.5 -8.378906 1.5 -9.265625 C 1.5 -10.597656 2.015625 -11.632812 3.046875 -12.375 C 4.078125 -13.113281 5.46875 -13.484375 7.21875 -13.484375 Z M 7.21875 -13.484375 "/></g></g></g><g fill="#000000" fill-opacity="1"><g transform="translate(171.273652, 34.547282)"><g><path d="M 14.78125 -5.921875 L 5.28125 -5.921875 C 5.28125 -5.003906 5.578125 -4.320312 6.171875 -3.875 C 6.773438 -3.4375 7.425781 -3.21875 8.125 -3.21875 C 8.851562 -3.21875 9.429688 -3.3125 9.859375 -3.5 C 10.285156 -3.695312 10.769531 -4.085938 11.3125 -4.671875 L 14.578125 -3.03125 C 13.210938 -0.75 10.945312 0.390625 7.78125 0.390625 C 5.8125 0.390625 4.117188 -0.285156 2.703125 -1.640625 C 1.296875 -2.992188 0.59375 -4.625 0.59375 -6.53125 C 0.59375 -8.4375 1.296875 -10.070312 2.703125 -11.4375 C 4.117188 -12.800781 5.8125 -13.484375 7.78125 -13.484375 C 9.863281 -13.484375 11.554688 -12.878906 12.859375 -11.671875 C 14.160156 -10.472656 14.8125 -8.757812 14.8125 -6.53125 C 14.8125 -6.226562 14.800781 -6.023438 14.78125 -5.921875 Z M 5.40625 -8.421875 L 10.390625 -8.421875 C 10.285156 -9.109375 10.015625 -9.632812 9.578125 -10 C 9.148438 -10.363281 8.597656 -10.546875 7.921875 -10.546875 C 7.171875 -10.546875 6.570312 -10.347656 6.125 -9.953125 C 5.6875 -9.566406 5.445312 -9.054688 5.40625 -8.421875 Z M 5.40625 -8.421875 "/></g></g></g><g fill="#000000" fill-opacity="1"><g transform="translate(184.271275, 34.547282)"><g/></g></g><g fill="#000000" fill-opacity="1"><g transform="translate(188.841755, 34.547282)"><g><path d="M 4.4375 -5.46875 C 5.257812 -5.46875 5.953125 -5.179688 6.515625 -4.609375 C 7.085938 -4.035156 7.375 -3.34375 7.375 -2.53125 C 7.375 -1.726562 7.085938 -1.039062 6.515625 -0.46875 C 5.953125 0.101562 5.257812 0.390625 4.4375 0.390625 C 3.644531 0.390625 2.960938 0.101562 2.390625 -0.46875 C 1.816406 -1.039062 1.53125 -1.726562 1.53125 -2.53125 C 1.53125 -3.34375 1.816406 -4.035156 2.390625 -4.609375 C 2.960938 -5.179688 3.644531 -5.46875 4.4375 -5.46875 Z M 4.4375 -5.46875 "/></g></g></g><g fill="#000000" fill-opacity="1"><g transform="translate(72.98154, 60.2223)"><g><path d="M 2.484375 -5.515625 C 2.296875 -5.515625 2.160156 -5.457031 2.078125 -5.34375 C 1.992188 -5.238281 1.953125 -5.101562 1.953125 -4.9375 L 1.953125 -4.34375 L 2.78125 -4.34375 C 2.894531 -4.34375 2.984375 -4.304688 3.046875 -4.234375 C 3.117188 -4.171875 3.15625 -4.082031 3.15625 -3.96875 C 3.15625 -3.863281 3.117188 -3.773438 3.046875 -3.703125 C 2.984375 -3.640625 2.894531 -3.609375 2.78125 -3.609375 L 1.953125 -3.609375 L 1.953125 -0.40625 C 1.953125 -0.289062 1.910156 -0.191406 1.828125 -0.109375 C 1.753906 -0.0351562 1.660156 0 1.546875 0 C 1.429688 0 1.332031 -0.0351562 1.25 -0.109375 C 1.175781 -0.191406 1.140625 -0.289062 1.140625 -0.40625 L 1.140625 -3.609375 L 0.625 -3.609375 C 0.519531 -3.609375 0.429688 -3.640625 0.359375 -3.703125 C 0.285156 -3.773438 0.25 -3.863281 0.25 -3.96875 C 0.25 -4.082031 0.285156 -4.171875 0.359375 -4.234375 C 0.429688 -4.304688 0.519531 -4.34375 0.625 -4.34375 L 1.140625 -4.34375 L 1.140625 -4.9375 C 1.140625 -5.332031 1.265625 -5.644531 1.515625 -5.875 C 1.773438 -6.113281 2.132812 -6.234375 2.59375 -6.234375 C 2.789062 -6.234375 2.960938 -6.195312 3.109375 -6.125 C 3.253906 -6.050781 3.328125 -5.945312 3.328125 -5.8125 C 3.328125 -5.695312 3.289062 -5.601562 3.21875 -5.53125 C 3.15625 -5.46875 3.082031 -5.4375 3 -5.4375 C 2.976562 -5.4375 2.914062 -5.445312 2.8125 -5.46875 C 2.6875 -5.5 2.578125 -5.515625 2.484375 -5.515625 Z M 2.484375 -5.515625 "/></g></g></g><g fill="#000000" fill-opacity="1"><g transform="translate(81.768097, 60.2223)"><g><path d="M 3.890625 -4.421875 C 4.003906 -4.421875 4.097656 -4.378906 4.171875 -4.296875 C 4.253906 -4.222656 4.296875 -4.128906 4.296875 -4.015625 L 4.296875 -1.765625 C 4.296875 -1.179688 4.132812 -0.726562 3.8125 -0.40625 C 3.488281 -0.0820312 3.03125 0.078125 2.4375 0.078125 C 1.851562 0.078125 1.398438 -0.0820312 1.078125 -0.40625 C 0.753906 -0.726562 0.59375 -1.179688 0.59375 -1.765625 L 0.59375 -4.015625 C 0.59375 -4.128906 0.628906 -4.222656 0.703125 -4.296875 C 0.785156 -4.378906 0.882812 -4.421875 1 -4.421875 C 1.113281 -4.421875 1.207031 -4.378906 1.28125 -4.296875 C 1.363281 -4.222656 1.40625 -4.128906 1.40625 -4.015625 L 1.40625 -1.765625 C 1.40625 -1.035156 1.75 -0.671875 2.4375 -0.671875 C 2.78125 -0.671875 3.039062 -0.757812 3.21875 -0.9375 C 3.40625 -1.125 3.5 -1.398438 3.5 -1.765625 L 3.5 -4.015625 C 3.5 -4.128906 3.535156 -4.222656 3.609375 -4.296875 C 3.679688 -4.378906 3.773438 -4.421875 3.890625 -4.421875 Z M 3.890625 -4.421875 "/></g></g></g><g fill="#000000" fill-opacity="1"><g transform="translate(92.156183, 60.2223)"><g><path d="M 2.796875 -4.515625 C 2.941406 -4.515625 3.066406 -4.476562 3.171875 -4.40625 C 3.285156 -4.332031 3.34375 -4.238281 3.34375 -4.125 C 3.34375 -3.988281 3.304688 -3.882812 3.234375 -3.8125 C 3.160156 -3.75 3.078125 -3.71875 2.984375 -3.71875 C 2.929688 -3.71875 2.851562 -3.734375 2.75 -3.765625 C 2.632812 -3.804688 2.539062 -3.828125 2.46875 -3.828125 C 2.289062 -3.828125 2.117188 -3.765625 1.953125 -3.640625 C 1.796875 -3.515625 1.664062 -3.347656 1.5625 -3.140625 C 1.457031 -2.929688 1.40625 -2.695312 1.40625 -2.4375 L 1.40625 -0.40625 C 1.40625 -0.289062 1.363281 -0.191406 1.28125 -0.109375 C 1.207031 -0.0351562 1.113281 0 1 0 C 0.875 0 0.773438 -0.0351562 0.703125 -0.109375 C 0.628906 -0.191406 0.59375 -0.289062 0.59375 -0.40625 L 0.59375 -4.015625 C 0.59375 -4.128906 0.628906 -4.222656 0.703125 -4.296875 C 0.785156 -4.378906 0.882812 -4.421875 1 -4.421875 C 1.113281 -4.421875 1.207031 -4.378906 1.28125 -4.296875 C 1.363281 -4.222656 1.40625 -4.128906 1.40625 -4.015625 L 1.40625 -3.578125 C 1.53125 -3.859375 1.710938 -4.082031 1.953125 -4.25 C 2.203125 -4.425781 2.484375 -4.515625 2.796875 -4.515625 Z M 2.796875 -4.515625 "/></g></g></g><g fill="#000000" fill-opacity="1"><g transform="translate(101.136609, 60.2223)"><g><path d="M 2.859375 -4.515625 C 3.867188 -4.515625 4.375 -3.910156 4.375 -2.703125 L 4.375 -0.40625 C 4.375 -0.289062 4.332031 -0.191406 4.25 -0.109375 C 4.175781 -0.0351562 4.082031 0 3.96875 0 C 3.851562 0 3.753906 -0.0351562 3.671875 -0.109375 C 3.597656 -0.191406 3.5625 -0.289062 3.5625 -0.40625 L 3.5625 -2.6875 C 3.5625 -3.019531 3.484375 -3.285156 3.328125 -3.484375 C 3.179688 -3.679688 2.9375 -3.78125 2.59375 -3.78125 C 2.375 -3.78125 2.171875 -3.726562 1.984375 -3.625 C 1.804688 -3.53125 1.664062 -3.398438 1.5625 -3.234375 C 1.457031 -3.066406 1.40625 -2.882812 1.40625 -2.6875 L 1.40625 -0.40625 C 1.40625 -0.289062 1.363281 -0.191406 1.28125 -0.109375 C 1.207031 -0.0351562 1.113281 0 1 0 C 0.875 0 0.773438 -0.0351562 0.703125 -0.109375 C 0.628906 -0.191406 0.59375 -0.289062 0.59375 -0.40625 L 0.59375 -4.015625 C 0.59375 -4.128906 0.628906 -4.222656 0.703125 -4.296875 C 0.785156 -4.378906 0.882812 -4.421875 1 -4.421875 C 1.113281 -4.421875 1.207031 -4.378906 1.28125 -4.296875 C 1.363281 -4.222656 1.40625 -4.128906 1.40625 -4.015625 L 1.40625 -3.71875 C 1.550781 -3.945312 1.753906 -4.132812 2.015625 -4.28125 C 2.273438 -4.4375 2.554688 -4.515625 2.859375 -4.515625 Z M 2.859375 -4.515625 "/></g></g></g><g fill="#000000" fill-opacity="1"><g transform="translate(111.600559, 60.2223)"><g><path d="M 1.359375 -0.40625 C 1.359375 -0.289062 1.316406 -0.191406 1.234375 -0.109375 C 1.160156 -0.0351562 1.066406 0 0.953125 0 C 0.835938 0 0.742188 -0.0351562 0.671875 -0.109375 C 0.597656 -0.191406 0.5625 -0.289062 0.5625 -0.40625 L 0.5625 -4.0625 C 0.5625 -4.175781 0.597656 -4.269531 0.671875 -4.34375 C 0.742188 -4.425781 0.835938 -4.46875 0.953125 -4.46875 C 1.066406 -4.46875 1.160156 -4.425781 1.234375 -4.34375 C 1.316406 -4.269531 1.359375 -4.175781 1.359375 -4.0625 Z M 0.953125 -5.015625 C 0.785156 -5.015625 0.664062 -5.046875 0.59375 -5.109375 C 0.53125 -5.171875 0.5 -5.265625 0.5 -5.390625 L 0.5 -5.53125 C 0.5 -5.664062 0.535156 -5.757812 0.609375 -5.8125 C 0.679688 -5.863281 0.796875 -5.890625 0.953125 -5.890625 C 1.117188 -5.890625 1.234375 -5.859375 1.296875 -5.796875 C 1.367188 -5.742188 1.40625 -5.65625 1.40625 -5.53125 L 1.40625 -5.390625 C 1.40625 -5.253906 1.367188 -5.15625 1.296875 -5.09375 C 1.222656 -5.039062 1.109375 -5.015625 0.953125 -5.015625 Z M 0.953125 -5.015625 "/></g></g></g><g fill="#000000" fill-opacity="1"><g transform="translate(119.013158, 60.2223)"><g><path d="M 1.796875 -3.640625 L 1.796875 -1.125 C 1.796875 -0.84375 1.921875 -0.703125 2.171875 -0.703125 C 2.210938 -0.703125 2.265625 -0.710938 2.328125 -0.734375 C 2.398438 -0.753906 2.457031 -0.765625 2.5 -0.765625 C 2.570312 -0.765625 2.632812 -0.734375 2.6875 -0.671875 C 2.738281 -0.609375 2.765625 -0.53125 2.765625 -0.4375 C 2.765625 -0.3125 2.695312 -0.207031 2.5625 -0.125 C 2.425781 -0.0390625 2.269531 0 2.09375 0 C 1.914062 0 1.75 -0.0195312 1.59375 -0.0625 C 1.4375 -0.101562 1.296875 -0.203125 1.171875 -0.359375 C 1.054688 -0.515625 1 -0.757812 1 -1.09375 L 1 -3.640625 L 0.5 -3.640625 C 0.394531 -3.640625 0.304688 -3.671875 0.234375 -3.734375 C 0.171875 -3.804688 0.140625 -3.894531 0.140625 -4 C 0.140625 -4.113281 0.171875 -4.203125 0.234375 -4.265625 C 0.304688 -4.335938 0.394531 -4.375 0.5 -4.375 L 1 -4.375 L 1 -5.078125 C 1 -5.191406 1.035156 -5.285156 1.109375 -5.359375 C 1.179688 -5.441406 1.28125 -5.484375 1.40625 -5.484375 C 1.507812 -5.484375 1.597656 -5.441406 1.671875 -5.359375 C 1.753906 -5.285156 1.796875 -5.191406 1.796875 -5.078125 L 1.796875 -4.375 L 2.5 -4.375 C 2.601562 -4.375 2.691406 -4.335938 2.765625 -4.265625 C 2.835938 -4.191406 2.875 -4.101562 2.875 -4 C 2.875 -3.894531 2.835938 -3.804688 2.765625 -3.734375 C 2.691406 -3.671875 2.601562 -3.640625 2.5 -3.640625 Z M 1.796875 -3.640625 "/></g></g></g><g fill="#000000" fill-opacity="1"><g transform="translate(127.715423, 60.2223)"><g><path d="M 3.890625 -4.421875 C 4.003906 -4.421875 4.097656 -4.378906 4.171875 -4.296875 C 4.253906 -4.222656 4.296875 -4.128906 4.296875 -4.015625 L 4.296875 -1.765625 C 4.296875 -1.179688 4.132812 -0.726562 3.8125 -0.40625 C 3.488281 -0.0820312 3.03125 0.078125 2.4375 0.078125 C 1.851562 0.078125 1.398438 -0.0820312 1.078125 -0.40625 C 0.753906 -0.726562 0.59375 -1.179688 0.59375 -1.765625 L 0.59375 -4.015625 C 0.59375 -4.128906 0.628906 -4.222656 0.703125 -4.296875 C 0.785156 -4.378906 0.882812 -4.421875 1 -4.421875 C 1.113281 -4.421875 1.207031 -4.378906 1.28125 -4.296875 C 1.363281 -4.222656 1.40625 -4.128906 1.40625 -4.015625 L 1.40625 -1.765625 C 1.40625 -1.035156 1.75 -0.671875 2.4375 -0.671875 C 2.78125 -0.671875 3.039062 -0.757812 3.21875 -0.9375 C 3.40625 -1.125 3.5 -1.398438 3.5 -1.765625 L 3.5 -4.015625 C 3.5 -4.128906 3.535156 -4.222656 3.609375 -4.296875 C 3.679688 -4.378906 3.773438 -4.421875 3.890625 -4.421875 Z M 3.890625 -4.421875 "/></g></g></g><g fill="#000000" fill-opacity="1"><g transform="translate(138.103509, 60.2223)"><g><path d="M 2.796875 -4.515625 C 2.941406 -4.515625 3.066406 -4.476562 3.171875 -4.40625 C 3.285156 -4.332031 3.34375 -4.238281 3.34375 -4.125 C 3.34375 -3.988281 3.304688 -3.882812 3.234375 -3.8125 C 3.160156 -3.75 3.078125 -3.71875 2.984375 -3.71875 C 2.929688 -3.71875 2.851562 -3.734375 2.75 -3.765625 C 2.632812 -3.804688 2.539062 -3.828125 2.46875 -3.828125 C 2.289062 -3.828125 2.117188 -3.765625 1.953125 -3.640625 C 1.796875 -3.515625 1.664062 -3.347656 1.5625 -3.140625 C 1.457031 -2.929688 1.40625 -2.695312 1.40625 -2.4375 L 1.40625 -0.40625 C 1.40625 -0.289062 1.363281 -0.191406 1.28125 -0.109375 C 1.207031 -0.0351562 1.113281 0 1 0 C 0.875 0 0.773438 -0.0351562 0.703125 -0.109375 C 0.628906 -0.191406 0.59375 -0.289062 0.59375 -0.40625 L 0.59375 -4.015625 C 0.59375 -4.128906 0.628906 -4.222656 0.703125 -4.296875 C 0.785156 -4.378906 0.882812 -4.421875 1 -4.421875 C 1.113281 -4.421875 1.207031 -4.378906 1.28125 -4.296875 C 1.363281 -4.222656 1.40625 -4.128906 1.40625 -4.015625 L 1.40625 -3.578125 C 1.53125 -3.859375 1.710938 -4.082031 1.953125 -4.25 C 2.203125 -4.425781 2.484375 -4.515625 2.796875 -4.515625 Z M 2.796875 -4.515625 "/></g></g></g><g fill="#000000" fill-opacity="1"><g transform="translate(147.083934, 60.2223)"><g><path d="M 4.484375 -2.375 C 4.472656 -2.28125 4.425781 -2.195312 4.34375 -2.125 C 4.269531 -2.050781 4.179688 -2.015625 4.078125 -2.015625 L 1.109375 -2.015625 C 1.148438 -1.609375 1.304688 -1.28125 1.578125 -1.03125 C 1.847656 -0.78125 2.179688 -0.65625 2.578125 -0.65625 C 2.847656 -0.65625 3.066406 -0.691406 3.234375 -0.765625 C 3.398438 -0.847656 3.546875 -0.953125 3.671875 -1.078125 C 3.765625 -1.128906 3.847656 -1.15625 3.921875 -1.15625 C 4.015625 -1.15625 4.09375 -1.117188 4.15625 -1.046875 C 4.226562 -0.984375 4.265625 -0.90625 4.265625 -0.8125 C 4.265625 -0.695312 4.207031 -0.59375 4.09375 -0.5 C 3.925781 -0.332031 3.707031 -0.191406 3.4375 -0.078125 C 3.164062 0.0234375 2.890625 0.078125 2.609375 0.078125 C 2.160156 0.078125 1.757812 -0.015625 1.40625 -0.203125 C 1.0625 -0.390625 0.796875 -0.65625 0.609375 -1 C 0.421875 -1.34375 0.328125 -1.734375 0.328125 -2.171875 C 0.328125 -2.640625 0.421875 -3.050781 0.609375 -3.40625 C 0.804688 -3.769531 1.0625 -4.046875 1.375 -4.234375 C 1.695312 -4.421875 2.039062 -4.515625 2.40625 -4.515625 C 2.769531 -4.515625 3.109375 -4.421875 3.421875 -4.234375 C 3.734375 -4.054688 3.984375 -3.800781 4.171875 -3.46875 C 4.367188 -3.144531 4.472656 -2.78125 4.484375 -2.375 Z M 2.40625 -3.78125 C 2.09375 -3.78125 1.820312 -3.691406 1.59375 -3.515625 C 1.363281 -3.335938 1.210938 -3.0625 1.140625 -2.6875 L 3.625 -2.6875 L 3.625 -2.765625 C 3.59375 -3.054688 3.457031 -3.296875 3.21875 -3.484375 C 2.988281 -3.679688 2.71875 -3.78125 2.40625 -3.78125 Z M 2.40625 -3.78125 "/></g></g></g></svg>